<svg width="74" height="73" viewBox="0 0 74 73" fill="none" xmlns="http://www.w3.org/2000/svg">
<path d="M43.4784 69.7938L43.7049 70.3377L43.9946 70.7072L44.5109 71.1639L45.5433 71.6206H47.0919L48.1243 71.1639L48.6405 70.7072L49.1567 69.7938V51.9824L50.9635 51.069H51.9959L53.5445 51.9824V68.8804L54.3188 69.7938L55.3512 70.2505H55.8675L56.8999 69.7938L57.4161 69.3371L57.9323 68.4237V61.5732L58.4485 61.1165H58.9647L59.4809 61.5732V66.5969L59.9971 67.0536L61.0295 67.5103H62.062L63.0944 67.0536L63.6106 66.5969V63.1716L64.1268 62.9433H64.643L65.1592 63.1716V64.0851L66.1916 64.7701H70.3213L71.3537 64.3134L72.9023 62.4866V59.2897L52.7702 26.6354L51.2216 24.1236L50.7054 23.6668H49.6729V25.037L50.1892 25.9504L50.7054 26.8638L51.2216 27.3205L51.4797 27.7772L51.7378 28.6906L69.2889 57.0062L70.3213 58.3763L71.3537 59.7464V62.4866L70.8375 62.9433L70.3213 63.4H67.224L66.7078 62.9433L66.1916 62.4866L65.1592 62.0299H63.6106L62.5782 62.4866L62.3201 62.9433V66.1402L62.062 66.5969H61.0295L60.7714 66.1402V61.1165L59.9971 60.2031L58.9647 59.7464H57.9323L56.8999 60.2031L56.1256 61.1165V68.4237L55.8675 69.1088H55.3512L54.835 68.4237V51.5257L52.254 49.6989H50.1892L48.1243 51.069L47.6081 52.4391V69.3371L46.5924 70.4991H46.0902L44.769 69.3371V40.5649L44.2429 39.7234L43.2203 39.1947H42.1879L41.212 39.7952L40.6393 41.0216V67.0536L39.865 67.967L38.8326 67.0536V43.7618L37.2839 42.3917H36.2515L34.7029 43.7618V67.5103L34.1867 67.967H33.6705L33.1543 67.5103V41.0216L32.5317 39.8848L31.4915 39.1947H30.254L29.2676 39.8848L28.5084 41.0216V69.7938L27.476 70.7072H26.9598L25.9273 69.7938V51.5257L25.4111 50.6123L24.3787 49.6989L22.8301 48.7855H21.7977L20.7652 49.2422L19.7328 49.6989L18.7004 51.069L18.4423 51.9824V52.4391V68.1954L18.1842 68.8804H17.668L17.4099 68.1954V61.1165L15.6032 59.2897H14.5707L12.764 60.6598V66.1402L12.5059 66.5969H11.9897L11.4735 66.1402V63.4L10.9573 62.4866L9.92486 61.5732H8.37624L7.34382 62.4866L6.82761 63.4H2.18173L1.66552 63.1716V62.0299L2.18173 61.5732L2.69794 60.6598L3.21415 60.2031L13.8618 41.9114L15.087 39.6514L22.3139 26.4071L22.572 25.9504V24.5803L22.3139 24.1236H21.7977L21.2815 25.037L20.7652 25.9504L20.249 26.8638L19.7328 27.7772L19.2166 28.6906L18.7004 29.604L18.1842 30.5174L17.668 31.4308L17.1518 32.3442L16.6356 33.2576L16.1194 34.171L15.6032 35.0844L15.087 35.9978L14.5707 36.9112L14.0545 37.8246L13.5383 38.738L13.0221 39.6514L12.5059 40.5649L11.9897 41.4783L11.4735 42.3917L10.9573 43.3051L10.4411 44.2185L9.92486 45.1319L9.40866 46.0453L8.89245 46.9587L8.37624 47.8721L7.86003 48.7855L7.34382 49.6989L6.82761 50.6123L6.3114 51.5257L5.79519 52.4391L5.27898 53.3525L4.76278 54.2659L4.24657 55.1793L3.73036 56.0928L3.21415 57.0062L2.69794 57.9196L2.18173 58.833L1.66552 59.7464L0.633104 61.1165L0.375 61.8015V63.6283L1.66552 64.7701H7.86003L8.37624 64.3134V63.4L8.89245 62.9433H9.40866L9.92486 63.4V66.1402L11.9897 67.967H12.5059L14.5707 66.1402V61.1165L15.087 60.6598L15.6032 61.1165V68.8804L17.1518 70.2505H17.668H18.7004L20.249 68.8804V51.5257L21.7977 50.1556H22.8301L24.3787 51.5257V51.9824V70.2505L26.4435 72.0774H26.9598H27.9922L30.057 70.2505V41.0216L30.5732 40.5649H31.0894L31.6056 41.0216V67.0536L33.1543 68.8804H34.7029L36.2515 67.0536V44.2185L36.7677 43.7618H37.2839L37.8001 44.2185V67.5103L39.3488 68.8804H40.3812L41.4136 67.967L41.9298 67.5103V67.0536V41.4783V41.0216L42.446 40.5649H42.9622L43.4784 41.0216V69.7938Z" fill="url(#paint0_linear_113_830)"/>
<path d="M39.3488 8.13895H40.8974V7.22554L36.7677 0.831703L36.5096 0.375H35.4772L31.6056 7.22554V8.13895H33.1543L33.6705 7.22554L35.2191 4.02862H36.7677L38.8326 7.22554L39.3488 8.13895Z" fill="url(#paint1_linear_113_830)"/>
<path d="M22.3139 29.604V29.1473V28.4622L27.476 28.0055L28.5084 28.6906L29.0246 29.1473L29.5408 29.604L30.057 30.0607H30.5732H32.6381L33.1543 29.604V29.1473V27.7772L33.6705 27.5488H38.8326V27.7772V29.1473L39.3488 29.3756L39.865 29.8323L38.8326 30.7457L38.0582 30.9741V30.0607L37.8001 29.604L37.542 29.1473H37.0258L36.7677 29.604L36.5096 30.0607H35.9934L35.7353 29.604L35.4772 29.1473H34.961L34.7029 29.604V30.5174L33.9286 30.7457V31.2024V31.6591L34.1867 32.1159V32.8009V33.7143H34.7029H35.7353V32.3442H36.7677V33.7143H37.2839H37.8001V32.8009H38.3163V31.4308L40.1231 30.0607H41.4136L41.9298 29.8323L42.9622 29.604L43.9946 28.6906L44.5109 27.7772L45.0271 26.8638V26.4071V25.2653L44.5109 24.5803H43.4784L42.446 24.8086L41.9298 25.037L39.3488 27.3205H33.1543L30.057 25.037H27.476L26.9598 25.722V26.8638L27.476 27.3205V27.7772L22.3139 28.2339L22.8301 27.3205L23.3463 26.4071V25.4937V24.5803L24.3787 23.8952H31.0894L31.5273 23.7258L31.6529 23.4747L31.5273 23.2236L31.0894 22.9818H30.3151H27.7341H24.3787L23.8625 22.7534L23.3463 22.2967L22.8301 21.3833L22.3139 20.6983V17.273L22.578 16.283L23.0443 15.4462L23.4568 14.8123L23.9769 14.1667L24.6225 13.4852L25.3578 12.7857L26.1828 12.1042L26.7926 11.62L27.476 11.1357L28.0301 10.795L28.6937 10.4225L29.1062 10.2211L29.3752 10.0955L29.6801 9.96576L30.057 9.75477L30.5732 9.50906L31.6056 9.28071L32.8962 9.05235H39.6069L41.4136 9.28071L42.1879 9.50906L42.9622 9.96576L43.7365 10.4225L44.5109 10.8792L45.0271 11.3359L45.8014 11.7926L46.3176 12.2493L47.0919 12.9343L47.6081 13.6194L48.1243 14.3044L48.6405 14.7611L49.1567 15.4462L50.1892 16.588L50.4473 17.7297V18.8715L50.1892 20.0132V21.84L49.931 22.7534H49.1567V20.0132L48.8986 19.5565H48.3824L48.1243 20.2416V22.0684V23.6668L48.6405 23.8952V26.4071L49.1567 26.8638L49.6729 27.3205L50.7054 28.2339L50.9635 28.6906V29.1473L50.7054 29.604L49.6729 30.289L48.6405 30.7457L47.6081 30.9741L46.5757 31.4308L45.5433 31.8875L43.9946 32.8009L43.2203 33.2576V34.171L43.9946 34.6277V37.3679H43.4784V36.9112L42.9622 36.6829V35.5411H42.446V36.9112H41.4136V36.2262H40.8974V37.8246H40.3812V37.3679L39.865 37.1396V36.6829V36.2262H39.3488H38.8326V36.6829H38.3163V37.1396H37.2839V35.7695H36.7677V37.3679L36.5096 37.8246H35.7353V38.2813H35.2191V37.8246H34.7029V36.6829H34.1867V37.3679H33.6705V37.8246H33.1543L32.8962 37.3679L32.6381 36.9112V35.9978H32.1218V36.4545L31.6056 36.9112H30.5732V35.5411H30.057V35.9978H29.5408V36.9112H29.0246V35.9978H28.5084V34.3994L28.2503 33.9427L28.5084 33.2576L28.2503 32.8009L27.9922 31.8875H26.9598L26.4435 31.4308L25.9273 30.9741H24.8949L24.3787 30.5174H23.3463L22.8301 30.0607L22.3139 29.604Z" fill="url(#paint2_linear_113_830)"/>
<path d="M43.4784 69.7938L43.7049 70.3377L43.9946 70.7072L44.5109 71.1639L45.5433 71.6206H47.0919L48.1243 71.1639L48.6405 70.7072L49.1567 69.7938V51.9824L50.9635 51.069H51.9959L53.5445 51.9824V68.8804L54.3188 69.7938L55.3512 70.2505H55.8675L56.8999 69.7938L57.4161 69.3371L57.9323 68.4237V61.5732L58.4485 61.1165H58.9647L59.4809 61.5732V66.5969L59.9971 67.0536L61.0295 67.5103H62.062L63.0944 67.0536L63.6106 66.5969V63.1716L64.1268 62.9433H64.643L65.1592 63.1716V64.0851L66.1916 64.7701H70.3213L71.3537 64.3134L72.9023 62.4866V59.2897L52.7702 26.6354L51.2216 24.1236L50.7054 23.6668H49.6729V25.037L50.1892 25.9504L50.7054 26.8638L51.2216 27.3205L51.4797 27.7772L51.7378 28.6906L69.2889 57.0062L70.3213 58.3763L71.3537 59.7464V62.4866L70.8375 62.9433L70.3213 63.4H67.224L66.7078 62.9433L66.1916 62.4866L65.1592 62.0299H63.6106L62.5782 62.4866L62.3201 62.9433V66.1402L62.062 66.5969H61.0295L60.7714 66.1402V61.1165L59.9971 60.2031L58.9647 59.7464H57.9323L56.8999 60.2031L56.1256 61.1165V68.4237L55.8675 69.1088H55.3512L54.835 68.4237V51.5257L52.254 49.6989H50.1892L48.1243 51.069L47.6081 52.4391V69.3371L46.5924 70.4991H46.0902L44.769 69.3371V40.5649L44.2429 39.7234L43.2203 39.1947H42.1879L41.212 39.7952L40.6393 41.0216V67.0536L39.865 67.967L38.8326 67.0536V43.7618L37.2839 42.3917H36.2515L34.7029 43.7618V67.5103L34.1867 67.967H33.6705L33.1543 67.5103V41.0216L32.5317 39.8848L31.4915 39.1947H30.254L29.2676 39.8848L28.5084 41.0216V69.7938L27.476 70.7072H26.9598L25.9273 69.7938V51.5257L25.4111 50.6123L24.3787 49.6989L22.8301 48.7855H21.7977L20.7652 49.2422L19.7328 49.6989L18.7004 51.069L18.4423 51.9824V52.4391V68.1954L18.1842 68.8804H17.668L17.4099 68.1954V61.1165L15.6032 59.2897H14.5707L12.764 60.6598V66.1402L12.5059 66.5969H11.9897L11.4735 66.1402V63.4L10.9573 62.4866L9.92486 61.5732H8.37624L7.34382 62.4866L6.82761 63.4H2.18173L1.66552 63.1716V62.0299L2.18173 61.5732L2.69794 60.6598L3.21415 60.2031L13.8618 41.9114L15.087 39.6514L22.3139 26.4071L22.572 25.9504V24.5803L22.3139 24.1236H21.7977L21.2815 25.037L20.7652 25.9504L20.249 26.8638L19.7328 27.7772L19.2166 28.6906L18.7004 29.604L18.1842 30.5174L17.668 31.4308L17.1518 32.3442L16.6356 33.2576L16.1194 34.171L15.6032 35.0844L15.087 35.9978L14.5707 36.9112L14.0545 37.8246L13.5383 38.738L13.0221 39.6514L12.5059 40.5649L11.9897 41.4783L11.4735 42.3917L10.9573 43.3051L10.4411 44.2185L9.92486 45.1319L9.40866 46.0453L8.89245 46.9587L8.37624 47.8721L7.86003 48.7855L7.34382 49.6989L6.82761 50.6123L6.3114 51.5257L5.79519 52.4391L5.27898 53.3525L4.76278 54.2659L4.24657 55.1793L3.73036 56.0928L3.21415 57.0062L2.69794 57.9196L2.18173 58.833L1.66552 59.7464L0.633104 61.1165L0.375 61.8015V63.6283L1.66552 64.7701H7.86003L8.37624 64.3134V63.4L8.89245 62.9433H9.40866L9.92486 63.4V66.1402L11.9897 67.967H12.5059L14.5707 66.1402V61.1165L15.087 60.6598L15.6032 61.1165V68.8804L17.1518 70.2505H17.668H18.7004L20.249 68.8804V51.5257L21.7977 50.1556H22.8301L24.3787 51.5257V51.9824V70.2505L26.4435 72.0774H26.9598H27.9922L30.057 70.2505V41.0216L30.5732 40.5649H31.0894L31.6056 41.0216V67.0536L33.1543 68.8804H34.7029L36.2515 67.0536V44.2185L36.7677 43.7618H37.2839L37.8001 44.2185V67.5103L39.3488 68.8804H40.3812L41.4136 67.967L41.9298 67.5103V67.0536V41.4783V41.0216L42.446 40.5649H42.9622L43.4784 41.0216V69.7938Z" stroke="black" stroke-width="0.75" stroke-linejoin="bevel"/>
<path d="M39.3488 8.13895H40.8974V7.22554L36.7677 0.831703L36.5096 0.375H35.4772L31.6056 7.22554V8.13895H33.1543L33.6705 7.22554L35.2191 4.02862H36.7677L38.8326 7.22554L39.3488 8.13895Z" stroke="black" stroke-width="0.75" stroke-linejoin="bevel"/>
<path d="M22.3139 29.604V29.1473V28.4622L27.476 28.0055L28.5084 28.6906L29.0246 29.1473L29.5408 29.604L30.057 30.0607H30.5732H32.6381L33.1543 29.604V29.1473V27.7772L33.6705 27.5488H38.8326V27.7772V29.1473L39.3488 29.3756L39.865 29.8323L38.8326 30.7457L38.0582 30.9741V30.0607L37.8001 29.604L37.542 29.1473H37.0258L36.7677 29.604L36.5096 30.0607H35.9934L35.7353 29.604L35.4772 29.1473H34.961L34.7029 29.604V30.5174L33.9286 30.7457V31.2024V31.6591L34.1867 32.1159V32.8009V33.7143H34.7029H35.7353V32.3442H36.7677V33.7143H37.2839H37.8001V32.8009H38.3163V31.4308L40.1231 30.0607H41.4136L41.9298 29.8323L42.9622 29.604L43.9946 28.6906L44.5109 27.7772L45.0271 26.8638V26.4071V25.2653L44.5109 24.5803H43.4784L42.446 24.8086L41.9298 25.037L39.3488 27.3205H33.1543L30.057 25.037H27.476L26.9598 25.722V26.8638L27.476 27.3205V27.7772L22.3139 28.2339L22.8301 27.3205L23.3463 26.4071V25.4937V24.5803L24.3787 23.8952H31.0894L31.5273 23.7258L31.6529 23.4747L31.5273 23.2236L31.0894 22.9818H30.3151H27.7341H24.3787L23.8625 22.7534L23.3463 22.2967L22.8301 21.3833L22.3139 20.6983V17.273L22.578 16.283L23.0443 15.4462L23.4568 14.8123L23.9769 14.1667L24.6225 13.4852L25.3578 12.7857L26.1828 12.1042L26.7926 11.62L27.476 11.1357L28.0301 10.795L28.6937 10.4225L29.1062 10.2211L29.3752 10.0955L29.6801 9.96576L30.057 9.75477L30.5732 9.50906L31.6056 9.28071L32.8962 9.05235H39.6069L41.4136 9.28071L42.1879 9.50906L42.9622 9.96576L43.7365 10.4225L44.5109 10.8792L45.0271 11.3359L45.8014 11.7926L46.3176 12.2493L47.0919 12.9343L47.6081 13.6194L48.1243 14.3044L48.6405 14.7611L49.1567 15.4462L50.1892 16.588L50.4473 17.7297V18.8715L50.1892 20.0132V21.84L49.931 22.7534H49.1567V20.0132L48.8986 19.5565H48.3824L48.1243 20.2416V22.0684V23.6668L48.6405 23.8952V26.4071L49.1567 26.8638L49.6729 27.3205L50.7054 28.2339L50.9635 28.6906V29.1473L50.7054 29.604L49.6729 30.289L48.6405 30.7457L47.6081 30.9741L46.5757 31.4308L45.5433 31.8875L43.9946 32.8009L43.2203 33.2576V34.171L43.9946 34.6277V37.3679H43.4784V36.9112L42.9622 36.6829V35.5411H42.446V36.9112H41.4136V36.2262H40.8974V37.8246H40.3812V37.3679L39.865 37.1396V36.6829V36.2262H39.3488H38.8326V36.6829H38.3163V37.1396H37.2839V35.7695H36.7677V37.3679L36.5096 37.8246H35.7353V38.2813H35.2191V37.8246H34.7029V36.6829H34.1867V37.3679H33.6705V37.8246H33.1543L32.8962 37.3679L32.6381 36.9112V35.9978H32.1218V36.4545L31.6056 36.9112H30.5732V35.5411H30.057V35.9978H29.5408V36.9112H29.0246V35.9978H28.5084V34.3994L28.2503 33.9427L28.5084 33.2576L28.2503 32.8009L27.9922 31.8875H26.9598L26.4435 31.4308L25.9273 30.9741H24.8949L24.3787 30.5174H23.3463L22.8301 30.0607L22.3139 29.604Z" stroke="black" stroke-width="0.75" stroke-linejoin="bevel"/>
<path d="M30.0001 28.3172L29.5158 28.1378L29.2109 27.8509V27.4384L29.3544 27.0797L29.731 26.7569L30.1435 26.6134L30.5202 26.7569L30.843 26.9004L31.0044 27.259V27.6715L30.843 28.0123L30.5202 28.3172H30.0001Z" fill="black"/>
<path d="M41.4064 28.0123L41.7472 28.1378H42.3211L42.7157 27.8509L42.8591 27.4384L42.7157 27.0797L42.4825 26.7569L42.1238 26.6134H41.7472L41.4064 26.9004L41.2092 27.259V27.6715L41.4064 28.0123Z" fill="black"/>
<path d="M30.0001 28.3172L29.5158 28.1378L29.2109 27.8509V27.4384L29.3544 27.0797L29.731 26.7569L30.1435 26.6134L30.5202 26.7569L30.843 26.9004L31.0044 27.259V27.6715L30.843 28.0123L30.5202 28.3172H30.0001Z" stroke="black" stroke-width="0.5"/>
<path d="M41.4064 28.0123L41.7472 28.1378H42.3211L42.7157 27.8509L42.8591 27.4384L42.7157 27.0797L42.4825 26.7569L42.1238 26.6134H41.7472L41.4064 26.9004L41.2092 27.259V27.6715L41.4064 28.0123Z" stroke="black" stroke-width="0.5"/>
<path d="M38.0944 27.7805C38.3028 27.7805 38.08 27.7806 37.7741 27.7806C37.6792 27.7806 37.2552 27.7806 37.1706 27.7806C37.0057 27.7806 37.2137 27.7806 37.0173 27.7806C36.9501 27.7807 36.2784 27.7806 36.2233 27.7807C35.9265 27.7807 36.0976 27.7807 35.9548 27.7807C35.2503 27.7808 34.9981 27.7809 34.6921 27.7811C34.5918 27.7811 33.9821 27.7811 34.2487 27.7812C34.2805 27.7812 34.8701 27.7812 34.9187 27.7812C35.6626 27.7812 34.4723 27.7812 34.3142 27.7812C33.6898 27.7812 33.6354 27.7813 33.863 27.7813C33.9615 27.7813 35.1326 27.7813 34.4753 27.7813C34.4309 27.7813 33.8048 27.7813 33.738 27.7813C33.5878 27.7813 33.6997 27.7814 33.6501 27.7814C33.5513 27.7814 33.5576 27.7814 33.5505 27.7814C33.5353 27.7814 33.2241 27.7814 33.3659 27.7814C33.3981 27.7815 34.0399 27.7814 34.1491 27.7815C34.2582 27.7815 34.2037 27.7815 34.0524 27.7815C33.9011 27.7815 33.3966 27.7815 33.281 27.7815C32.305 27.7815 33.6567 27.7815 33.6901 27.7815C34.2597 27.7816 33.4897 27.7816 33.4919 27.7816C33.4952 27.7817 33.7494 27.7817 33.7146 27.7817C33.6705 27.7818 33.3227 27.7818 33.3825 27.7819C33.3881 27.7819 34.1427 27.7819 34.1511 27.7819C34.2389 27.7819 34.1566 27.782 33.6472 27.782C33.5954 27.782 32.9328 27.782 32.8415 27.782C32.297 27.782 30.9889 27.7821 33.8737 27.7821C33.7611 27.7821 33.6447 27.7821 33.0632 27.7822C32.6889 27.7822 31.9671 27.7822 32.2751 27.7822C32.3437 27.7822 32.9759 27.7822 33.031 27.7822C33.2624 27.7822 33.0569 27.7822 33.3835 27.7822C33.4514 27.7823 34.0178 27.7823 34.1198 27.7823C34.9459 27.7823 33.5804 27.7823 33.4812 27.7823C32.7413 27.7823 33.0324 27.7823 33.0144 27.7824C33.0099 27.7824 33.7707 27.7824 33.7937 27.7824C33.9027 27.7824 33.8373 27.7824 33.4997 27.7824C33.4228 27.7825 32.7747 27.7824 32.7048 27.7825C32.4044 27.7825 33.6284 27.7825 33.364 27.7825C33.3098 27.7825 32.755 27.7825 32.694 27.7825C31.7376 27.7825 33.0928 27.7825 33.1228 27.7825C33.5316 27.7825 32.1168 27.7825 32.3171 27.7826C32.3425 27.7826 33.0445 27.7826 33.073 27.7826C33.2667 27.7826 33.0739 27.7827 32.5124 27.7827C32.4261 27.7827 31.8987 27.7827 31.8337 27.7827C30.818 27.7827 32.1789 27.7828 32.2302 27.7828C32.5991 27.7828 31.4578 27.7828 33.0788 27.7828C32.5163 27.7829 33.4266 27.783 31.9743 27.7831C31.9575 27.7831 31.2872 27.7831 31.2566 27.7831C30.8802 27.7831 31.9219 27.7831 33.196 27.7831C33.5159 27.7831 31.9777 27.7831 31.865 27.7832C31.4494 27.7832 30.4523 27.7832 30.3718 27.7832C29.7399 27.7832 33.0377 27.7832 33.0388 27.7832C33.0333 27.7832 32.4263 27.7832 32.3659 27.7832C32.1764 27.7832 32.4176 27.7832 32.2087 27.7832C31.7252 27.7832 30.1228 27.7832 31.0554 27.7832C31.1764 27.7832 33.0471 27.7832 32.9587 27.7832C32.9219 27.7832 32.9539 27.7833 32.8327 27.7833C32.7116 27.7833 32.1088 27.7833 32.0827 27.7833C31.2856 27.7833 30.9552 27.7833 29.7751 27.7833C28.5994 27.7833 31.4035 27.7833 31.7165 27.7833C32.0286 27.7833 31.3709 27.7833 31.1423 27.7833C30.9136 27.7833 30.5305 27.7833 30.4011 27.7833C29.5554 27.7834 31.7929 27.7833 32.238 27.7834C33.2918 27.7834 31.2123 27.7834 31.0085 27.7834C30.9535 27.7834 31.4271 27.7834 31.4714 27.7834C31.6405 27.7834 30.9917 27.7834 31.5866 27.7834C31.6836 27.7834 32.9339 27.7835 32.0163 27.7835C31.884 27.7835 31.3658 27.7835 31.2497 27.7835C31.0755 27.7835 30.9622 27.7835 31.1355 27.7835C31.2636 27.7835 32.1175 27.7835 31.8523 27.7835C31.7338 27.7835 31.2343 27.7835 31.0534 27.7835C30.8726 27.7835 30.8946 27.7835 30.9118 27.7836C30.9295 27.7836 31.5772 27.7836 31.6208 27.7836C31.8708 27.7836 32.1831 27.7836 32.1823 27.7836C32.2614 27.7836 31.1696 27.7837 31.531 27.7838C31.5584 27.7838 32.2414 27.7838 32.2526 27.7838C32.5388 27.7838 30.7228 27.7838 30.115 27.7838C31.501 27.7838 31.2501 27.7838 31.4021 27.7838C31.4764 27.7838 32.0131 27.7838 32.0681 27.7838C32.8833 27.7838 31.8303 27.7838 31.615 27.7838C30.8226 27.7838 31.7588 27.7838 31.2292 27.7838C30.7036 27.7838 29.9243 27.7838 29.9343 27.7838C30.4305 27.7838 31.7271 27.7838 31.9372 27.7838C32.7321 27.7839 31.7148 27.7839 31.6091 27.784C31.5035 27.784 31.595 27.784 31.4157 27.784C31.0915 27.784 32.0535 27.784 32.4939 27.784C32.9341 27.7841 30.5672 27.7841 30.0583 27.7841C29.5497 27.7841 30.0733 27.7841 29.7937 27.7841C29.5141 27.7841 29.1682 27.7841 29.0632 27.7841C28.9583 27.7841 29.8632 27.7841 30.3952 27.7841C31.5224 27.7841 32.7054 27.7841 32.2898 27.7841C32.2651 27.7841 31.6427 27.7841 31.5798 27.7841C31.1007 27.7841 31.071 27.7842 30.6472 27.7842C30.5879 27.7842 29.8955 27.7842 29.8532 27.7842C29.4104 27.7842 30.5778 27.7842 31.8747 27.7842C30.1488 27.7842 29.0929 27.7843 29.0827 27.7843C29.076 27.7843 29.8298 27.7843 30.361 27.7843C30.5212 27.7843 30.0036 27.7843 30.3581 27.7843C31.5169 27.7843 32.8141 27.7843 32.2976 27.7843C32.273 27.7843 31.6387 27.7843 31.6003 27.7843C31.3489 27.7843 32.5609 27.7843 32.7077 27.7844C32.8229 27.7844 32.0838 27.7844 31.9636 27.7844C30.0232 27.7844 30.4675 27.7845 31.8054 27.7845C31.7506 27.7845 31.8262 27.7845 31.6413 27.7845C31.5783 27.7845 31.0165 27.7845 30.9558 27.7845C30.0035 27.7845 31.3051 27.7845 31.3562 27.7845C31.8522 27.7846 30.8657 27.7846 31.8298 27.7846C31.8645 27.7846 33.2124 27.7846 32.2282 27.7846C32.1604 27.7846 31.5471 27.7846 31.4997 27.7846C31.4522 27.7846 30.7296 27.7847 31.3542 27.7847C31.5046 27.7847 32.5988 27.7847 31.7439 27.7847C31.6278 27.7847 31.2412 27.7847 31.0261 27.7847C30.3407 27.7847 31.703 27.7847 30.5456 27.7847C29.3883 27.7847 28.5215 27.7847 29.32 27.7848C29.3433 27.7848 30.423 27.7848 30.406 27.7848C30.3778 27.7848 30.1528 27.7848 30.1599 27.7848C30.1636 27.7848 30.8341 27.7848 30.8464 27.7848C31.2221 27.7848 30.6244 27.7849 30.365 27.7849C30.3161 27.7849 31.2304 27.7849 30.5075 27.7849C29.7162 27.7849 26.4245 27.7849 27.2087 27.785C27.5224 27.785 31.6986 27.785 29.5349 27.785C30.071 27.7851 28.9637 27.7851 29.7292 27.7851C29.7631 27.7851 30.9287 27.7852 30.9128 27.7852C30.887 27.7852 30.3422 27.7852 30.3064 27.7852C30.1423 27.7852 30.6083 27.7852 30.5359 27.7852C30.5095 27.7852 29.9462 27.7852 29.9148 27.7852C29.8838 27.7853 30.6255 27.7853 30.2673 27.7853C29.9942 27.7853 28.4782 27.7853 28.3015 27.7853C29.7969 27.7853 29.7661 27.7853 30.1609 27.7853C30.2374 27.7853 30.7579 27.7853 30.821 27.7853C31.0893 27.7853 30.6579 27.7853 30.9499 27.7853C31.02 27.7853 31.5307 27.7853 31.6169 27.7853C32.369 27.7854 31.2202 27.7854 31.0202 27.7854C30.2606 27.7854 30.9248 27.7854 30.6257 27.7854C30.3266 27.7854 29.9527 27.7854 29.7712 27.7854C29.3958 27.7854 29.4783 27.7854 29.4548 27.7855C29.4486 27.7855 30.1303 27.7855 30.1452 27.7855C30.3181 27.7855 29.593 27.7855 30.9509 27.7855C27.4399 27.7855 31.2914 27.7855 30.5886 27.7855C30.5317 27.7855 28.8714 27.7855 28.6277 27.7855C28.3841 27.7855 28.9031 27.7855 28.5232 27.7855C28.434 27.7855 26.8782 27.7855 26.7839 27.7855C26.0474 27.7855 28.5285 27.7855 28.6648 27.7855C30.1354 27.7855 28.4593 27.7854 28.3435 27.7854C27.8128 27.7854 28.1617 27.7854 27.7829 27.7854C27.5381 27.7854 25.9129 27.7854 25.9626 27.7854C26.1271 27.7854 28.3943 27.7853 26.4284 27.7853C26.0092 27.7853 24.2328 27.7853 25.6296 27.7853C25.7177 27.7853 26.9955 27.7853 26.1872 27.7853C26.0853 27.7853 25.5676 27.7853 25.5242 27.7853C25.2428 27.7853 25.6553 27.7853 25.4577 27.7853C25.2602 27.7852 24.9658 27.7852 25.1413 27.7852C25.2463 27.7852 26.2109 27.7852 26.447 27.7852C27.1273 27.7852 26.0119 27.7852 26.8357 27.7852C27.6636 27.7852 28.9209 27.7852 29.4558 27.7852C28.1108 27.7852 26.7303 27.7852 25.3777 27.7852C25.425 27.7851 25.8599 27.7851 25.8005 27.7851C25.7918 27.7851 25.0687 27.7851 25.0408 27.7851C24.9259 27.785 25.4413 27.785 25.2361 27.785C25.0744 27.785 24.3088 27.785 24.116 27.785C25.655 27.785 25.1325 27.7849 25.2732 27.7849C25.3218 27.7849 25.7328 27.7849 25.8669 27.7849C26.3629 27.7849 25.0028 27.7849 24.7888 27.7849C23.8753 27.7849 26.9537 27.7849 26.8777 27.7849C26.8747 27.7849 25.2338 27.7848 25.1316 27.7848C24.4652 27.7848 25.7027 27.7848 25.824 27.7848C26.0455 27.7848 26.4374 27.7848 25.9568 27.7848C25.8144 27.7848 24.7916 27.7848 25.5827 27.7848C25.6863 27.7848 26.2287 27.7848 26.2605 27.7848C26.7899 27.7848 25.0857 27.7848 24.5085 27.7847C23.9315 27.7847 25.1079 27.7847 25.447 27.7847C26.3242 27.7847 25.8219 27.7847 25.9079 27.7847C26.9323 27.7847 26.7559 27.7847 26.8425 27.7847C28.5135 27.7847 28.4132 27.7847 26.9255 27.7847C26.763 27.7847 26.9188 27.7847 26.8425 27.7847C25.203 27.7847 24.993 27.7847 26.5251 27.7847C27.2432 27.7847 28.0804 27.7847 27.7741 27.7846C27.6359 27.7846 26.4853 27.7846 26.1716 27.7846C25.4559 27.7846 26.5292 27.7846 26.3601 27.7846C26.2987 27.7846 25.6689 27.7846 25.6052 27.7846C25.4343 27.7846 25.9069 27.7845 25.6648 27.7845C25.642 27.7845 24.9827 27.7845 24.9743 27.7845C24.8978 27.7845 25.3201 27.7845 25.3318 27.7844C25.3371 27.7844 24.9735 27.7844 25.0466 27.7844C25.1694 27.7844 26.1281 27.7843 25.8952 27.7843C25.7462 27.7843 25.0867 27.7843 24.6374 27.7843C23.7665 27.7843 25.3265 27.7842 25.5681 27.7842C25.5761 27.7842 25.7315 27.7843 26.07 27.7842C26.7754 27.7842 25.5712 27.7842 25.5681 27.7842C25.7241 27.7842 25.8738 27.7842 25.7478 27.7842C25.6789 27.7842 25.0541 27.7842 25.03 27.7842C24.4709 27.7842 24.3121 27.7841 24.6042 27.7841C24.6169 27.7841 25.3157 27.7841 25.3367 27.7841C25.6474 27.7841 24.7925 27.7841 24.2849 27.784C23.7776 27.784 23.9475 27.784 25.1472 27.784C24.9961 27.784 25.5265 27.784 25.8484 27.784C26.1702 27.784 24.8098 27.7839 24.7829 27.7839C23.9222 27.7839 24.7008 27.7839 24.822 27.7839C24.8819 27.7839 24.6846 27.7838 24.5359 27.7838C24.416 27.7838 24.7348 27.7838 24.531 27.7838C24.5038 27.7838 23.8981 27.7838 23.8747 27.7838C23.1501 27.7838 24.6308 27.7838 24.8952 27.7838C25.8569 27.7838 26.3691 27.7838 25.9167 27.7837C25.8131 27.7837 23.6811 27.7837 23.5564 27.7837C23.3982 27.7837 24.1624 27.7837 23.9773 27.7837C23.9621 27.7837 23.4907 27.7837 23.5115 27.7837C23.6018 27.7837 23.8761 27.7836 23.8288 27.7836C23.8242 27.7836 23.0764 27.7836 23.0574 27.7836C22.9687 27.7836 22.9964 27.7836 23.3464 27.7835C23.4349 27.7835 23.9585 27.7835 24.114 27.7835C25.0547 27.7835 23.6879 27.7835 23.6619 27.7835C23.005 27.7835 24.242 27.7834 23.6531 27.7834C23.6185 27.7834 22.1533 27.7834 23.4099 27.7833C23.4935 27.7833 24.7792 27.7833 23.9001 27.7833C23.8451 27.7833 23.1833 27.7833 23.2507 27.7833C23.318 27.7833 22.876 27.7833 23.6033 27.7833C23.8323 27.7833 25.1148 27.7833 24.0925 27.7833C24.0211 27.7833 21.7095 27.7832 23.3044 27.7832C23.567 27.7832 25.2547 27.7832 24.3894 27.7832C24.2216 27.7832 23.8452 27.7832 23.6101 27.7832C23.2478 27.7832 23.6998 27.7832 22.948 27.7832C22.8149 27.7832 21.6693 27.7832 22.5388 27.7832C22.675 27.7832 23.2384 27.7832 23.3015 27.7832C23.604 27.7831 23.2271 27.7831 23.6169 27.7831C23.7539 27.7831 24.6648 27.7831 24.9089 27.7831C25.1529 27.7831 25.3877 27.7831 24.9714 27.7831C24.555 27.783 23.1032 27.7831 22.987 27.783C22.4825 27.783 23.3341 27.7829 23.4587 27.7829C23.4773 27.7829 22.9578 27.7829 22.948 27.7829C22.9093 27.7828 22.4223 27.7828 23.5261 27.7827C24.4102 27.7827 25.0833 27.7827 25.4431 27.7827C25.6147 27.7827 23.9269 27.7827 23.8738 27.7827C23.334 27.7827 24.0817 27.7826 23.8523 27.7826C23.8047 27.7826 23.1206 27.7826 23.0876 27.7826C22.969 27.7826 23.2743 27.7826 23.2185 27.7826C23.1919 27.7826 22.6694 27.7826 22.7097 27.7826C22.8002 27.7825 23.0198 27.7825 23.5095 27.7825C23.5541 27.7825 24.2041 27.7825 24.2283 27.7825C24.2655 27.7825 24.7486 27.7825 24.2497 27.7825C24.0997 27.7825 22.9055 27.7825 23.7302 27.7824C23.9025 27.7824 25.3363 27.7824 24.0974 27.7824C23.8915 27.7824 22.2204 27.7824 23.2976 27.7824C23.5811 27.7824 24.7544 27.7824 24.5701 27.7824C24.5406 27.7824 23.8992 27.7824 23.8367 27.7824C23.6273 27.7824 23.6958 27.7823 23.4949 27.7823C23.4399 27.7823 22.7762 27.7823 22.7156 27.7823C22.5478 27.7823 22.7168 27.7823 22.9245 27.7822C23.0024 27.7822 23.5522 27.7822 23.612 27.7822C24.5852 27.7822 23.2717 27.7822 23.1951 27.7822C22.7364 27.7822 23.3535 27.7822 23.1902 27.7822C23.1468 27.7822 22.5204 27.7822 22.4646 27.7822C21.9189 27.7822 23.0437 27.7822 23.1677 27.7822C23.5188 27.7822 23.4685 27.7821 23.3884 27.7821C23.3581 27.7821 22.6318 27.7821 22.613 27.7821C22.4879 27.7821 22.5574 27.782 22.9578 27.782C23.0345 27.782 23.5937 27.782 23.7214 27.782C24.6151 27.782 23.3961 27.782 23.28 27.782C22.7499 27.782 23.2444 27.782 23.1521 27.7819C22.6925 27.7819 23.02 27.7818 23.2224 27.7818C23.4828 27.7817 24.0148 27.7816 23.8767 27.7816C23.8686 27.7816 23.1247 27.7816 23.1081 27.7816C22.9288 27.7815 23.2195 27.7815 23.0046 27.7814C22.9883 27.7814 22.283 27.7814 22.2331 27.7814C22.1259 27.7814 22.1642 27.7814 22.3894 27.7814C22.4979 27.7814 23.1031 27.7814 23.1999 27.7814C23.4268 27.7813 23.4771 27.7813 23.364 27.7813C23.3143 27.7813 22.593 27.7813 22.5847 27.7813C22.5131 27.7813 22.3889 27.7812 23.323 27.7811C23.3871 27.7811 24.8531 27.7811 24.572 27.7811C24.1651 27.7811 23.6866 27.7811 23.2517 27.7811C23.0174 27.781 23.5257 27.7809 23.6042 27.7809C23.6074 27.7809 22.8306 27.7809 22.8328 27.7809C22.8442 27.7808 22.6291 27.7808 23.4011 27.7807C23.4766 27.7807 24.8431 27.7807 24.6365 27.7807C24.5987 27.7807 24.4165 27.7807 24.1199 27.7807C24.0751 27.7807 23.4373 27.7807 23.4187 27.7807C23.3218 27.7807 23.4674 27.7806 23.8572 27.7806C23.9213 27.7806 24.6005 27.7806 24.6521 27.7806C25.0127 27.7806 24.4963 27.7805 25.113 27.7805C25.5283 27.7805 26.7024 27.7805 27.8581 27.7805C28.0212 27.7805 28.047 27.7805 28.7195 27.7805C30.4103 27.7805 32.2618 27.7805 34.0642 27.7805C34.4524 27.7805 34.0342 27.7805 34.9724 27.7805C35.0351 27.7805 35.3465 27.7805 35.6647 27.7805C35.8848 27.7805 36.5686 27.7805 36.8503 27.7805C37.1317 27.7805 36.5584 27.7805 36.8893 27.7805C37.2244 27.7805 38.0023 27.7805 38.0944 27.7805ZM27.2868 27.7839C27.9401 27.7839 25.5474 27.7839 26.1199 27.7839C26.1504 27.7839 27.2548 27.7839 27.2868 27.7839ZM27.6648 27.7851C28.7201 27.7851 27.1683 27.7851 26.3532 27.7851C25.5391 27.7851 27.3448 27.7851 27.6648 27.7851ZM28.4353 27.7852C29.2674 27.7852 25.8744 27.7852 26.5603 27.7852C26.599 27.7852 28.387 27.7852 28.4353 27.7852ZM28.1872 27.7805C28.219 27.7805 28.25 27.7805 28.2185 27.7805C27.4585 27.7805 27.3971 27.7805 28.1872 27.7805ZM29.2741 27.7854C29.7331 27.7854 29.2033 27.7854 28.6325 27.7854C28.1734 27.7854 28.7032 27.7854 29.2741 27.7854ZM29.8405 27.7834C29.8762 27.7834 29.9083 27.7834 29.7068 27.7834C29.0576 27.7834 29.2408 27.7834 29.8405 27.7834ZM29.3132 27.7856C29.4409 27.7856 32.2437 27.7855 31.9275 27.7856C31.8702 27.7856 31.0337 27.7856 30.781 27.7856C30.3206 27.7856 32.0804 27.7856 31.1374 27.7856C30.9648 27.7856 29.2997 27.7856 29.3093 27.7856C29.3106 27.7856 29.3119 27.7856 29.3132 27.7856ZM30.1609 27.7839C30.1925 27.7839 30.2225 27.7839 30.1911 27.7839C29.4315 27.7839 29.3706 27.7839 30.1609 27.7839ZM31.32 27.7831C31.3875 27.7831 31.4505 27.783 31.3884 27.783C30.1462 27.783 30.015 27.7831 31.32 27.7831ZM31.9118 27.7844C32.676 27.7844 32.766 27.7845 31.8064 27.7845C31.8573 27.7845 31.8648 27.7844 31.9118 27.7844Z" fill="#FC6767"/>
<defs>
<linearGradient id="paint0_linear_113_830" x1="5.89884" y1="37.6251" x2="118.331" y2="38.8267" gradientUnits="userSpaceOnUse">
<stop stop-color="#FFD500"/>
<stop offset="1" stop-color="#A34420"/>
</linearGradient>
<linearGradient id="paint1_linear_113_830" x1="5.89884" y1="37.6251" x2="118.331" y2="38.8267" gradientUnits="userSpaceOnUse">
<stop stop-color="#FFD500"/>
<stop offset="1" stop-color="#A34420"/>
</linearGradient>
<linearGradient id="paint2_linear_113_830" x1="5.89884" y1="37.6251" x2="118.331" y2="38.8267" gradientUnits="userSpaceOnUse">
<stop stop-color="#FFD500"/>
<stop offset="1" stop-color="#A34420"/>
</linearGradient>
</defs>
</svg>
